<svg width="148" height="81" viewBox="0 0 148 81" fill="none" xmlns="http://www.w3.org/2000/svg">
<path d="M57.3841 80.672L44.0401 67.328C40.7761 68.224 37.4481 68.672 34.0561 68.672C27.8481 68.672 22.1841 67.232 17.0641 64.352C11.9441 61.408 7.88013 57.344 4.87213 52.16C1.92813 46.912 0.456125 41.024 0.456125 34.496C0.456125 27.968 1.92813 22.112 4.87213 16.928C7.88013 11.68 11.9441 7.616 17.0641 4.736C22.1841 1.792 27.8481 0.319996 34.0561 0.319996C40.3281 0.319996 46.0241 1.792 51.1441 4.736C56.2641 7.616 60.2961 11.648 63.2401 16.832C66.1841 22.016 67.6561 27.904 67.6561 34.496C67.6561 40.896 66.2481 46.656 63.4321 51.776C60.6161 56.896 56.7441 60.928 51.8161 63.872L68.7121 80.672H57.3841ZM9.38413 34.496C9.38413 39.808 10.4401 44.48 12.5521 48.512C14.7281 52.544 17.6721 55.648 21.3841 57.824C25.1601 60 29.3841 61.088 34.0561 61.088C38.7281 61.088 42.9201 60 46.6321 57.824C50.4081 55.648 53.3521 52.544 55.4641 48.512C57.6401 44.48 58.7281 39.808 58.7281 34.496C58.7281 29.12 57.6401 24.448 55.4641 20.48C53.3521 16.448 50.4401 13.344 46.7281 11.168C43.0161 8.992 38.7921 7.904 34.0561 7.904C29.3201 7.904 25.0961 8.992 21.3841 11.168C17.6721 13.344 14.7281 16.448 12.5521 20.48C10.4401 24.448 9.38413 29.12 9.38413 34.496Z" fill="#FD3A3A"/>
<path d="M147.248 1.568V68H138.512V18.464L116.432 68H110.288L88.1124 18.368V68H79.3764V1.568H88.7844L113.36 56.48L137.936 1.568H147.248Z" fill="black"/>
</svg>
